<?xml version="1.0" encoding="UTF-8" standalone="no"?>
<!-- Created with Inkscape (http://www.inkscape.org/) -->

<svg
   width="32.599964mm"
   height="10.700005mm"
   viewBox="0 0 32.59996 10.700004"
   version="1.1"
   id="svg5"
   sodipodi:docname="ergopebs logo.svg"
   inkscape:version="1.1.1 (3bf5ae0d25, 2021-09-20)"
   inkscape:export-filename="D:\documents\Electrical\ErgoPebs\ergopebs logo.png"
   inkscape:export-xdpi="96"
   inkscape:export-ydpi="96"
   xmlns:inkscape="http://www.inkscape.org/namespaces/inkscape"
   xmlns:sodipodi="http://sodipodi.sourceforge.net/DTD/sodipodi-0.dtd"
   xmlns="http://www.w3.org/2000/svg"
   xmlns:svg="http://www.w3.org/2000/svg">
  <sodipodi:namedview
     id="namedview127"
     pagecolor="#000000"
     bordercolor="#eeeeee"
     borderopacity="1"
     inkscape:pageshadow="0"
     inkscape:pageopacity="0"
     inkscape:pagecheckerboard="0"
     inkscape:document-units="mm"
     showgrid="true"
     inkscape:zoom="11.256978"
     inkscape:cx="61.606231"
     inkscape:cy="20.209687"
     inkscape:window-width="1600"
     inkscape:window-height="1081"
     inkscape:window-x="1928"
     inkscape:window-y="862"
     inkscape:window-maximized="0"
     inkscape:current-layer="svg5"
     showguides="true">
    <inkscape:grid
       type="xygrid"
       id="grid16043"
       originx="0.049998793"
       originy="0.049999998"
       units="mm"
       spacingx="0.099999994"
       spacingy="0.099999997"
       empspacing="10"
       dotted="true"
       empcolor="#ffffff"
       empopacity="0.05098039"
       color="#c8c8c8"
       opacity="0.05098039" />
  </sodipodi:namedview>
  <defs
     id="defs2">
    <pattern
       id="EMFhbasepattern"
       patternUnits="userSpaceOnUse"
       width="6"
       height="6"
       x="0"
       y="0" />
  </defs>
  <path
     style="fill:#008484;fill-opacity:1;stroke:#008484;stroke-width:0.1;stroke-linecap:round;stroke-linejoin:round;stroke-miterlimit:4;stroke-dasharray:none;stroke-opacity:1"
     d="M 4.5499986,4.8499999 H 0.0499988 L 0.84999874,1.15 H 1.7499987 l -0.1,0.7999999 h 2.4999999 l -0.7,0.7 H 1.4499988 l -0.3,1.4 h 2.6999998 z"
     id="path1658"
     sodipodi:nodetypes="ccccccccccc" />
  <path
     style="fill:#008484;fill-opacity:1;stroke:#008484;stroke-width:0.1;stroke-linecap:round;stroke-linejoin:round;stroke-miterlimit:4;stroke-dasharray:none;stroke-opacity:1"
     d="m 9.7499983,1.35 -0.6,0.6999999 H 7.4499984 l 0.6,-0.6999999 -0.2,-0.2 H 5.6499985 l -0.7,-0.80000001 h 3.6999998 z"
     id="path1666"
     sodipodi:nodetypes="ccccccccc" />
  <path
     style="fill:#008484;fill-opacity:1;stroke:#008484;stroke-width:0.0770714;stroke-linecap:round;stroke-linejoin:round;stroke-miterlimit:4;stroke-dasharray:none;stroke-opacity:1"
     d="m 7.3499984,2.3499999 -0.3,0.7 h 1.8999999 l 1.2000007,1.8 h 0.899999 l -1.6999997,-2.5 z"
     id="path1686"
     sodipodi:nodetypes="ccccccc" />
  <path
     style="fill:#008484;fill-opacity:1;stroke:#008484;stroke-width:0.1;stroke-linecap:round;stroke-linejoin:round;stroke-miterlimit:4;stroke-dasharray:none;stroke-opacity:1"
     d="M 5.8499985,1.55 H 7.0499984 L 6.0499985,4.8499999 H 4.8499986 Z"
     id="path1692"
     sodipodi:nodetypes="ccccc" />
  <path
     style="fill:#008484;fill-opacity:1;stroke:#008484;stroke-width:0.1;stroke-linecap:round;stroke-linejoin:round;stroke-miterlimit:4;stroke-dasharray:none;stroke-opacity:1"
     d="m 17.349998,4.8959069 -1.7,-2.145907 0.8,-1.1999999 h 1.3 l -0.7,1.1999999 1.1,1.1 2.1,0 0.9,1.045907 z"
     id="path1708"
     sodipodi:nodetypes="ccccccccc" />
  <path
     style="fill:#008484;fill-opacity:1;stroke:#008484;stroke-width:0.1;stroke-linecap:round;stroke-linejoin:round;stroke-miterlimit:4;stroke-dasharray:none;stroke-opacity:1"
     d="m 19.149998,0.34999999 1.8,1.69999991 -0.9,1.4 h -1.2 l 0.8,-1.4 -0.9,-0.8999999 h -7.5 L 10.549999,0.34999999 Z"
     id="path1724"
     sodipodi:nodetypes="ccccccccc" />
  <path
     style="fill:#008484;fill-opacity:1;stroke:#008484;stroke-width:0.1;stroke-linecap:round;stroke-linejoin:round;stroke-miterlimit:4;stroke-dasharray:none;stroke-opacity:1"
     d="m 12.649998,3.9499999 -0.9,-1.2 0.9,-1.1999999 h -1.4 l -0.899999,1.1999999 1.399999,2.1 h 2.9 l -0.6,-0.9 z"
     id="path1742"
     sodipodi:nodetypes="ccccccccc" />
  <path
     style="fill:#008484;fill-opacity:1;stroke:#008484;stroke-width:0.1;stroke-linecap:round;stroke-linejoin:round;stroke-miterlimit:4;stroke-dasharray:none;stroke-opacity:1"
     d="m 13.949998,3.1499999 1.1,1.7 h 0.9 l -1.5,-2.3 h -0.9 l -0.4,0.6 z"
     id="path1756"
     sodipodi:nodetypes="ccccccc" />
  <path
     style="fill:#008484;fill-opacity:1;stroke:#008484;stroke-width:0.1;stroke-linecap:round;stroke-linejoin:round;stroke-miterlimit:4;stroke-dasharray:none;stroke-opacity:1"
     d="m 7.7499984,6.9499998 -0.3,-0.3 H 2.9499987 l -0.8,-0.8 h 5.6999997 l 1.1999999,1.2 -1.1999999,1.2 h -1.2 z"
     id="path1770"
     sodipodi:nodetypes="ccccccccc" />
  <path
     style="fill:#008484;fill-opacity:1;stroke:#008484;stroke-width:0.1;stroke-linecap:round;stroke-linejoin:round;stroke-miterlimit:4;stroke-dasharray:none;stroke-opacity:1"
     d="M 4.1499986,10.595907 5.3499985,7.0499998 h 1.2 L 5.3499986,10.595907 Z"
     id="path1784"
     sodipodi:nodetypes="ccccc" />
  <path
     style="fill:#008484;fill-opacity:1;stroke:#008484;stroke-width:0.1;stroke-linecap:round;stroke-linejoin:round;stroke-miterlimit:4;stroke-dasharray:none;stroke-opacity:1"
     d="m 9.7499983,7.3499998 h 0.9999997 l -0.1,0.4 h 2.399999 l -0.8,0.7999999 h -1.799998 l -0.2,1.3 h 2.499999 l 0.7,0.7459073 H 9.0499983 Z"
     id="path1804"
     sodipodi:nodetypes="ccccccccccc" />
  <path
     style="fill:#008484;fill-opacity:1;stroke:#008484;stroke-width:0.1;stroke-linecap:round;stroke-linejoin:round;stroke-miterlimit:4;stroke-dasharray:none;stroke-opacity:1"
     d="m 16.949998,7.2499998 -0.9,0.9 h 1.3 l 0.9,-0.9 -0.9,-1 H 9.0499983 l 0.7,0.8 h 6.9999997 z"
     id="path1810"
     sodipodi:nodetypes="ccccccccc" />
  <path
     style="fill:#008484;fill-opacity:1;stroke:#008484;stroke-width:0.1;stroke-linecap:round;stroke-linejoin:round;stroke-miterlimit:4;stroke-dasharray:none;stroke-opacity:1"
     d="m 17.849998,9.3499997 -0.5,-0.8 h -1.4 l 0.5,0.8 -0.4,0.5 h -0.8 l 0.8,-2.4999999 h -1.3 l -1,3.2459072 h 3.1 z"
     id="path1824"
     sodipodi:nodetypes="ccccccccccc" />
  <path
     style="fill:#008484;fill-opacity:1;stroke:#008484;stroke-width:0.1;stroke-linecap:round;stroke-linejoin:round;stroke-miterlimit:4;stroke-dasharray:none;stroke-opacity:1"
     d="m 18.949998,9.8499997 h 2.1 l 0.999999,-1.1 -0.360269,-0.5999999 h 1.260269 l 0.5,0.5999999 -1.599999,1.8459073 h -3.8 z"
     id="path1848"
     sodipodi:nodetypes="ccccccccc" />
  <path
     style="fill:#008484;fill-opacity:1;stroke:#008484;stroke-width:0.1;stroke-linecap:round;stroke-linejoin:round;stroke-miterlimit:4;stroke-dasharray:none;stroke-opacity:1"
     d="m 21.283618,8.1499999 -1.83362,-10e-8 1.1,-1.1 h 2.2 l 0.8,-0.8 h -3.6 l -1.8,1.9 0.567245,0.5999999 h 2.932755 z"
     id="path1860"
     sodipodi:nodetypes="cccccccccc" />
  <path
     style="fill:#008484;fill-opacity:1;fill-rule:nonzero;stroke:#008484;stroke-width:0.1;stroke-linecap:round;stroke-linejoin:round;stroke-miterlimit:4;stroke-dasharray:none;stroke-opacity:1"
     d="M 3.9499986,0.84999998 H 0.84999874 L 0.0499988,0.05 h 4.6999998 z"
     id="path1878"
     sodipodi:nodetypes="ccccc" />
  <path
     style="fill:#008484;fill-opacity:1;stroke:#008484;stroke-width:0.0999346px;stroke-linecap:round;stroke-linejoin:round;stroke-opacity:1"
     d="m 24.649997,9.0499997 -0.1,0.1 0.5,1.4459073 h 0.399738 L 25.549997,10.45 l -0.5,-1.3000003 0.1,-0.1 z"
     id="path4795"
     sodipodi:nodetypes="cccccccc" />
  <path
     style="fill:#008484;fill-opacity:1;stroke:#008484;stroke-width:0.0999346px;stroke-linecap:round;stroke-linejoin:round;stroke-opacity:1"
     d="m 29.463228,10.257077 -0.09993,0.299803 h 0.299804 l 0.09993,-0.299803 z"
     id="path10137"
     sodipodi:nodetypes="ccccc" />
  <path
     style="fill:#008484;fill-opacity:1;stroke:#008484;stroke-width:0.0999346px;stroke-linecap:round;stroke-linejoin:round;stroke-opacity:1"
     d="m 31.049997,8.1499991 h 0.9 l 0.6,0.6 -0.1,0.4 -1.5,0.7 -0.5,1e-6 0.1,-0.1 1.7,-0.900001 -0.3,-0.3 h -1.3 z"
     id="path10815"
     sodipodi:nodetypes="ccccccccccc" />
  <path
     style="fill:#008484;fill-opacity:1;stroke:#008484;stroke-width:0.0999346px;stroke-linecap:round;stroke-linejoin:round;stroke-opacity:1"
     d="m 30.249997,10.25 1.627595,0.0072 0.372405,0.3928 -2.2,3.7e-5 z"
     id="path10817"
     sodipodi:nodetypes="ccccc" />
  <path
     style="fill:#008484;fill-opacity:1;stroke:#008484;stroke-width:0.0999346px;stroke-linecap:round;stroke-linejoin:round;stroke-opacity:1"
     d="m 27.049997,9.9959067 0.3,0.6000003 h 1.2 l 0.4,-0.499997 h -1.2 l -0.2,-0.3000006 0.3,-0.9 h -0.4 z"
     id="path12241"
     sodipodi:nodetypes="ccccccccc" />
  <path
     style="fill:#008484;fill-opacity:1;stroke:#008484;stroke-width:0.0999346px;stroke-linecap:round;stroke-linejoin:round;stroke-opacity:1"
     d="m 29.458653,8.6499995 -0.3,-0.554093 h -1.208656 l -0.391344,0.454093 h 1.2 l 0.2,0.3000003 -0.3,0.9 h 0.4 z"
     id="path12241-8"
     sodipodi:nodetypes="ccccccccc" />
  <path
     style="fill:#008484;fill-opacity:1;stroke:#008484;stroke-width:0.1;stroke-linecap:round;stroke-linejoin:round;stroke-miterlimit:4;stroke-dasharray:none;stroke-opacity:1"
     d="m 24.449997,6.3499998 1.5,0 -1.9,-1.8999999 -0.5,0.8999999 z"
     id="path13776"
     sodipodi:nodetypes="ccccc" />
  <path
     style="fill:#008484;fill-opacity:1;stroke:#008484;stroke-width:0.1;stroke-linecap:round;stroke-linejoin:round;stroke-miterlimit:4;stroke-dasharray:none;stroke-opacity:1"
     d="m 26.449997,6.3499998 1.4,0 -2.5,-2.4999999 -0.5,0.9 z"
     id="path13776-0"
     sodipodi:nodetypes="ccccc" />
  <path
     style="fill:#008484;fill-opacity:1;stroke:#008484;stroke-width:0.1;stroke-linecap:round;stroke-linejoin:round;stroke-miterlimit:4;stroke-dasharray:none;stroke-opacity:1"
     d="m 25.749997,10.15 0.7,-1.1000003 h -0.5 l -0.4,0.6 z"
     id="path17516"
     sodipodi:nodetypes="ccccc" />
</svg>
