  0
SECTION
  2
HEADER
  9
$ACADVER
  1
AC1014
  9
$HANDSEED
  5
FFFF
  9
$MEASUREMENT
 70
     1
  0
ENDSEC
  0
SECTION
  2
TABLES
  0
TABLE
  2
VPORT
  5
8
330
0
100
AcDbSymbolTable
 70
     4
  0
VPORT
  5
2E
330
8
100
AcDbSymbolTableRecord
100
AcDbViewportTableRecord
  2
*ACTIVE
 70
     0
 10
0.0
 20
0.0
 11
1.0
 21
1.0
 12
210.0
 22
148.5
 13
0.0
 23
0.0
 14
10.0
 24
10.0
 15
10.0
 25
10.0
 16
0.0
 26
0.0
 36
1.0
 17
0.0
 27
0.0
 37
0.0
 40
341.0
 41
1.24
 42
50.0
 43
0.0
 44
0.0
 50
0.0
 51
0.0
 71
     0
 72
   100
 73
     1
 74
     3
 75
     0
 76
     0
 77
     0
 78
     0
  0
ENDTAB
  0
TABLE
  2
LTYPE
  5
5
330
0
100
AcDbSymbolTable
 70
     1
  0
LTYPE
  5
14
330
5
100
AcDbSymbolTableRecord
100
AcDbLinetypeTableRecord
  2
BYBLOCK
 70
     0
  3

 72
    65
 73
     0
 40
0.0
  0
LTYPE
  5
15
330
5
100
AcDbSymbolTableRecord
100
AcDbLinetypeTableRecord
  2
BYLAYER
 70
     0
  3

 72
    65
 73
     0
 40
0.0
  0
LTYPE
  5
16
330
5
100
AcDbSymbolTableRecord
100
AcDbLinetypeTableRecord
  2
CONTINUOUS
 70
     0
  3
Solid line
 72
    65
 73
     0
 40
0.0
  0
ENDTAB
  0
TABLE
  2
LAYER
  5
2
100
AcDbSymbolTable
 70
1
  0
LAYER
  5
50
100
AcDbSymbolTableRecord
100
AcDbLayerTableRecord
  2
0
 70
0
  6
CONTINUOUS
  0
ENDTAB
  0
TABLE
  2
STYLE
  5
3
330
0
100
AcDbSymbolTable
 70
     1
  0
STYLE
  5
11
330
3
100
AcDbSymbolTableRecord
100
AcDbTextStyleTableRecord
  2
STANDARD
 70
     0
 40
0.0
 41
1.0
 50
0.0
 71
     0
 42
2.5
  3
txt
  4

  0
ENDTAB
  0
TABLE
  2
VIEW
  5
6
330
0
100
AcDbSymbolTable
 70
     0
  0
ENDTAB
  0
TABLE
  2
UCS
  5
7
330
0
100
AcDbSymbolTable
 70
     0
  0
ENDTAB
  0
TABLE
  2
APPID
  5
9
330
0
100
AcDbSymbolTable
 70
     2
  0
APPID
  5
12
330
9
100
AcDbSymbolTableRecord
100
AcDbRegAppTableRecord
  2
ACAD
 70
     0
  0
ENDTAB
  0
TABLE
  2
DIMSTYLE
  5
A
330
0
100
AcDbSymbolTable
 70
     1
  0
DIMSTYLE
105
27
330
A
100
AcDbSymbolTableRecord
100
AcDbDimStyleTableRecord
  2
ISO-25
 70
     0
  3

  4

  5

  6

  7

 40
1.0
 41
2.5
 42
0.625
 43
3.75
 44
1.25
 45
0.0
 46
0.0
 47
0.0
 48
0.0
140
2.5
141
2.5
142
0.0
143
0.03937007874016
144
1.0
145
0.0
146
1.0
147
0.625
 71
     0
 72
     0
 73
     0
 74
     0
 75
     0
 76
     0
 77
     1
 78
     8
170
     0
171
     3
172
     1
173
     0
174
     0
175
     0
176
     0
177
     0
178
     0
270
     2
271
     2
272
     2
273
     2
274
     3
340
11
275
     0
280
     0
281
     0
282
     0
283
     0
284
     8
285
     0
286
     0
287
     3
288
     0
  0
ENDTAB
  0
TABLE
  2
BLOCK_RECORD
  5
1
330
0
100
AcDbSymbolTable
 70
     1
  0
BLOCK_RECORD
  5
1F
330
1
100
AcDbSymbolTableRecord
100
AcDbBlockTableRecord
  2
*MODEL_SPACE
  0
BLOCK_RECORD
  5
1B
330
1
100
AcDbSymbolTableRecord
100
AcDbBlockTableRecord
  2
*PAPER_SPACE
  0
ENDTAB
  0
ENDSEC
  0
SECTION
  2
BLOCKS
  0
BLOCK
  5
20
330
1F
100
AcDbEntity
  8
0
100
AcDbBlockBegin
  2
*MODEL_SPACE
 70
     0
 10
0.0
 20
0.0
 30
0.0
  3
*MODEL_SPACE
  1

  0
ENDBLK
  5
21
330
1F
100
AcDbEntity
  8
0
100
AcDbBlockEnd
  0
BLOCK
  5
1C
330
1B
100
AcDbEntity
 67
     1
  8
0
100
AcDbBlockBegin
  2
*PAPER_SPACE
  1

  0
ENDBLK
  5
1D
330
1B
100
AcDbEntity
 67
     1
  8
0
100
AcDbBlockEnd
  0
ENDSEC
  0
SECTION
  2
ENTITIES
  0
LWPOLYLINE
  5
100
100
AcDbEntity
  8
0
 62
4
100
AcDbPolyline
 90
10
 70
1
 10
4.550001
 20
5.850008
 30
0.0
 10
0.049999
 20
5.850008
 30
0.0
 10
0.849999
 20
9.550009
 30
0.0
 10
1.750000
 20
9.550009
 30
0.0
 10
1.649999
 20
8.750009
 30
0.0
 10
4.150001
 20
8.750009
 30
0.0
 10
3.450000
 20
8.050009
 30
0.0
 10
1.449999
 20
8.050009
 30
0.0
 10
1.149999
 20
6.650008
 30
0.0
 10
3.850000
 20
6.650008
 30
0.0
  0
LWPOLYLINE
  5
101
100
AcDbEntity
  8
0
 62
4
100
AcDbPolyline
 90
8
 70
1
 10
9.750003
 20
9.350009
 30
0.0
 10
9.150003
 20
8.650009
 30
0.0
 10
7.450002
 20
8.650009
 30
0.0
 10
8.050002
 20
9.350009
 30
0.0
 10
7.850002
 20
9.550009
 30
0.0
 10
5.650001
 20
9.550009
 30
0.0
 10
4.950001
 20
10.350010
 30
0.0
 10
8.650002
 20
10.350010
 30
0.0
  0
LWPOLYLINE
  5
102
100
AcDbEntity
  8
0
 62
4
100
AcDbPolyline
 90
6
 70
1
 10
7.350002
 20
8.350009
 30
0.0
 10
7.050002
 20
7.650009
 30
0.0
 10
8.950002
 20
7.650009
 30
0.0
 10
10.150004
 20
5.850008
 30
0.0
 10
11.050003
 20
5.850008
 30
0.0
 10
9.350003
 20
8.350009
 30
0.0
  0
LWPOLYLINE
  5
103
100
AcDbEntity
  8
0
 62
4
100
AcDbPolyline
 90
4
 70
1
 10
5.850001
 20
9.150009
 30
0.0
 10
7.050002
 20
9.150009
 30
0.0
 10
6.050001
 20
5.850008
 30
0.0
 10
4.850001
 20
5.850008
 30
0.0
  0
LWPOLYLINE
  5
104
100
AcDbEntity
  8
0
 62
4
100
AcDbPolyline
 90
8
 70
1
 10
17.350006
 20
5.804101
 30
0.0
 10
15.650005
 20
7.950009
 30
0.0
 10
16.450006
 20
9.150009
 30
0.0
 10
17.750006
 20
9.150009
 30
0.0
 10
17.050006
 20
7.950009
 30
0.0
 10
18.150006
 20
6.850008
 30
0.0
 10
20.250007
 20
6.850008
 30
0.0
 10
21.150008
 20
5.804101
 30
0.0
  0
LWPOLYLINE
  5
105
100
AcDbEntity
  8
0
 62
4
100
AcDbPolyline
 90
8
 70
1
 10
19.150007
 20
10.350010
 30
0.0
 10
20.950008
 20
8.650009
 30
0.0
 10
20.050007
 20
7.250008
 30
0.0
 10
18.850007
 20
7.250008
 30
0.0
 10
19.650007
 20
8.650009
 30
0.0
 10
18.750007
 20
9.550009
 30
0.0
 10
11.250003
 20
9.550009
 30
0.0
 10
10.550004
 20
10.350010
 30
0.0
  0
LWPOLYLINE
  5
106
100
AcDbEntity
  8
0
 62
4
100
AcDbPolyline
 90
8
 70
1
 10
12.650004
 20
6.750008
 30
0.0
 10
11.750003
 20
7.950009
 30
0.0
 10
12.650004
 20
9.150009
 30
0.0
 10
11.250003
 20
9.150009
 30
0.0
 10
10.350004
 20
7.950009
 30
0.0
 10
11.750003
 20
5.850008
 30
0.0
 10
14.650005
 20
5.850008
 30
0.0
 10
14.050005
 20
6.750008
 30
0.0
  0
LWPOLYLINE
  5
107
100
AcDbEntity
  8
0
 62
4
100
AcDbPolyline
 90
6
 70
1
 10
13.950005
 20
7.550009
 30
0.0
 10
15.050005
 20
5.850008
 30
0.0
 10
15.950005
 20
5.850008
 30
0.0
 10
14.450005
 20
8.150009
 30
0.0
 10
13.550004
 20
8.150009
 30
0.0
 10
13.150004
 20
7.550009
 30
0.0
  0
LWPOLYLINE
  5
108
100
AcDbEntity
  8
0
 62
4
100
AcDbPolyline
 90
8
 70
1
 10
7.750002
 20
3.750007
 30
0.0
 10
7.450002
 20
4.050007
 30
0.0
 10
2.950000
 20
4.050007
 30
0.0
 10
2.150000
 20
4.850007
 30
0.0
 10
7.850002
 20
4.850007
 30
0.0
 10
9.050003
 20
3.650007
 30
0.0
 10
7.850002
 20
2.450006
 30
0.0
 10
6.650002
 20
2.450006
 30
0.0
  0
LWPOLYLINE
  5
109
100
AcDbEntity
  8
0
 62
4
100
AcDbPolyline
 90
4
 70
1
 10
4.150001
 20
0.104098
 30
0.0
 10
5.350001
 20
3.650007
 30
0.0
 10
6.550002
 20
3.650007
 30
0.0
 10
5.350001
 20
0.104098
 30
0.0
  0
LWPOLYLINE
  5
10a
100
AcDbEntity
  8
0
 62
4
100
AcDbPolyline
 90
10
 70
1
 10
9.750003
 20
3.350007
 30
0.0
 10
10.750003
 20
3.350007
 30
0.0
 10
10.650003
 20
2.950007
 30
0.0
 10
13.050003
 20
2.950007
 30
0.0
 10
12.250003
 20
2.150006
 30
0.0
 10
10.450004
 20
2.150006
 30
0.0
 10
10.250004
 20
0.850006
 30
0.0
 10
12.750004
 20
0.850006
 30
0.0
 10
13.450004
 20
0.104098
 30
0.0
 10
9.050003
 20
0.104098
 30
0.0
  0
LWPOLYLINE
  5
10b
100
AcDbEntity
  8
0
 62
4
100
AcDbPolyline
 90
8
 70
1
 10
16.950006
 20
3.450007
 30
0.0
 10
16.050005
 20
2.550006
 30
0.0
 10
17.350006
 20
2.550006
 30
0.0
 10
18.250007
 20
3.450007
 30
0.0
 10
17.350006
 20
4.450007
 30
0.0
 10
9.050003
 20
4.450007
 30
0.0
 10
9.750003
 20
3.650007
 30
0.0
 10
16.750006
 20
3.650007
 30
0.0
  0
LWPOLYLINE
  5
10c
100
AcDbEntity
  8
0
 62
4
100
AcDbPolyline
 90
10
 70
1
 10
17.850006
 20
1.350006
 30
0.0
 10
17.350006
 20
2.150006
 30
0.0
 10
15.950005
 20
2.150006
 30
0.0
 10
16.450006
 20
1.350006
 30
0.0
 10
16.050005
 20
0.850006
 30
0.0
 10
15.250005
 20
0.850006
 30
0.0
 10
16.050005
 20
3.350007
 30
0.0
 10
14.750005
 20
3.350007
 30
0.0
 10
13.750004
 20
0.104098
 30
0.0
 10
16.850006
 20
0.104098
 30
0.0
  0
LWPOLYLINE
  5
10d
100
AcDbEntity
  8
0
 62
4
100
AcDbPolyline
 90
8
 70
1
 10
18.950007
 20
0.850006
 30
0.0
 10
21.050008
 20
0.850006
 30
0.0
 10
22.050007
 20
1.950006
 30
0.0
 10
21.689738
 20
2.550006
 30
0.0
 10
22.950008
 20
2.550006
 30
0.0
 10
23.450008
 20
1.950006
 30
0.0
 10
21.850008
 20
0.104098
 30
0.0
 10
18.050006
 20
0.104098
 30
0.0
  0
LWPOLYLINE
  5
10e
100
AcDbEntity
  8
0
 62
4
100
AcDbPolyline
 90
9
 70
1
 10
21.283628
 20
2.550006
 30
0.0
 10
19.450007
 20
2.550006
 30
0.0
 10
20.550008
 20
3.650007
 30
0.0
 10
22.750009
 20
3.650007
 30
0.0
 10
23.550009
 20
4.450007
 30
0.0
 10
19.950007
 20
4.450007
 30
0.0
 10
18.150006
 20
2.550006
 30
0.0
 10
18.717252
 20
1.950006
 30
0.0
 10
21.650008
 20
1.950006
 30
0.0
  0
LWPOLYLINE
  5
10f
100
AcDbEntity
  8
0
 62
4
100
AcDbPolyline
 90
4
 70
1
 10
3.950000
 20
9.850010
 30
0.0
 10
0.849999
 20
9.850010
 30
0.0
 10
0.049999
 20
10.650010
 30
0.0
 10
4.750001
 20
10.650010
 30
0.0
  0
LWPOLYLINE
  5
110
100
AcDbEntity
  8
0
 62
4
100
AcDbPolyline
 90
7
 70
1
 10
24.650009
 20
1.650006
 30
0.0
 10
24.550008
 20
1.550006
 30
0.0
 10
25.050009
 20
0.104098
 30
0.0
 10
25.449747
 20
0.104098
 30
0.0
 10
25.550009
 20
0.250005
 30
0.0
 10
25.050009
 20
1.550006
 30
0.0
 10
25.150009
 20
1.650006
 30
0.0
  0
LWPOLYLINE
  5
111
100
AcDbEntity
  8
0
 62
4
100
AcDbPolyline
 90
4
 70
1
 10
29.463242
 20
0.442928
 30
0.0
 10
29.363312
 20
0.143125
 30
0.0
 10
29.663116
 20
0.143125
 30
0.0
 10
29.763046
 20
0.442928
 30
0.0
  0
LWPOLYLINE
  5
112
100
AcDbEntity
  8
0
 62
4
100
AcDbPolyline
 90
10
 70
1
 10
31.050012
 20
2.550007
 30
0.0
 10
31.950012
 20
2.550007
 30
0.0
 10
32.550012
 20
1.950007
 30
0.0
 10
32.450012
 20
1.550007
 30
0.0
 10
30.950011
 20
0.850006
 30
0.0
 10
30.450011
 20
0.850005
 30
0.0
 10
30.550011
 20
0.950005
 30
0.0
 10
32.250012
 20
1.850007
 30
0.0
 10
31.950012
 20
2.150007
 30
0.0
 10
30.650011
 20
2.150007
 30
0.0
  0
LWPOLYLINE
  5
113
100
AcDbEntity
  8
0
 62
4
100
AcDbPolyline
 90
4
 70
1
 10
30.250011
 20
0.450005
 30
0.0
 10
31.877607
 20
0.442805
 30
0.0
 10
32.250012
 20
0.050005
 30
0.0
 10
30.050011
 20
0.049968
 30
0.0
  0
LWPOLYLINE
  5
114
100
AcDbEntity
  8
0
 62
4
100
AcDbPolyline
 90
8
 70
1
 10
27.050010
 20
0.704099
 30
0.0
 10
27.350010
 20
0.104098
 30
0.0
 10
28.550010
 20
0.104098
 30
0.0
 10
28.950011
 20
0.604095
 30
0.0
 10
27.750010
 20
0.604095
 30
0.0
 10
27.550010
 20
0.904096
 30
0.0
 10
27.850010
 20
1.804096
 30
0.0
 10
27.450010
 20
1.804096
 30
0.0
  0
LWPOLYLINE
  5
115
100
AcDbEntity
  8
0
 62
4
100
AcDbPolyline
 90
8
 70
1
 10
29.458667
 20
2.050006
 30
0.0
 10
29.158667
 20
2.604100
 30
0.0
 10
27.950010
 20
2.604100
 30
0.0
 10
27.558666
 20
2.150007
 30
0.0
 10
28.758666
 20
2.150007
 30
0.0
 10
28.958667
 20
1.850006
 30
0.0
 10
28.658666
 20
0.950006
 30
0.0
 10
29.058667
 20
0.950006
 30
0.0
  0
LWPOLYLINE
  5
116
100
AcDbEntity
  8
0
 62
4
100
AcDbPolyline
 90
4
 70
1
 10
24.450008
 20
4.350007
 30
0.0
 10
25.950009
 20
4.350007
 30
0.0
 10
24.050008
 20
6.250008
 30
0.0
 10
23.550008
 20
5.350008
 30
0.0
  0
LWPOLYLINE
  5
117
100
AcDbEntity
  8
0
 62
4
100
AcDbPolyline
 90
4
 70
1
 10
26.450009
 20
4.350007
 30
0.0
 10
27.850010
 20
4.350007
 30
0.0
 10
25.350009
 20
6.850008
 30
0.0
 10
24.850009
 20
5.950008
 30
0.0
  0
LWPOLYLINE
  5
118
100
AcDbEntity
  8
0
 62
4
100
AcDbPolyline
 90
4
 70
1
 10
25.750009
 20
0.550005
 30
0.0
 10
26.450009
 20
1.650006
 30
0.0
 10
25.950009
 20
1.650006
 30
0.0
 10
25.550009
 20
1.050006
 30
0.0
  0
ENDSEC
  0
SECTION
  2
OBJECTS
  0
DICTIONARY
  5
C
330
0
100
AcDbDictionary
  3
ACAD_GROUP
350
D
  3
ACAD_MLINESTYLE
350
17
  0
DICTIONARY
  5
D
330
C
100
AcDbDictionary
  0
DICTIONARY
  5
1A
330
C
100
AcDbDictionary
  0
DICTIONARY
  5
17
330
C
100
AcDbDictionary
  3
STANDARD
350
18
  0
DICTIONARY
  5
19
330
C
100
AcDbDictionary
  0
ENDSEC
  0
EOF
